<svg width="74" height="74" viewBox="0 0 74 74" fill="none" xmlns="http://www.w3.org/2000/svg">
<path d="M55.5 4.625H18.5C10.837 4.625 4.625 10.837 4.625 18.5V55.5C4.625 63.163 10.837 69.375 18.5 69.375H55.5C63.163 69.375 69.375 63.163 69.375 55.5V18.5C69.375 10.837 63.163 4.625 55.5 4.625Z" fill="url(#paint0_radial_81_337)"/>
<path d="M55.5 4.625H18.5C10.837 4.625 4.625 10.837 4.625 18.5V55.5C4.625 63.163 10.837 69.375 18.5 69.375H55.5C63.163 69.375 69.375 63.163 69.375 55.5V18.5C69.375 10.837 63.163 4.625 55.5 4.625Z" fill="url(#paint1_radial_81_337)"/>
<path d="M55.5 4.625H18.5C10.837 4.625 4.625 10.837 4.625 18.5V55.5C4.625 63.163 10.837 69.375 18.5 69.375H55.5C63.163 69.375 69.375 63.163 69.375 55.5V18.5C69.375 10.837 63.163 4.625 55.5 4.625Z" fill="url(#paint2_radial_81_337)"/>
<path d="M53.1875 24.2812C53.1875 26.1969 51.6344 27.75 49.7188 27.75C47.8031 27.75 46.25 26.1969 46.25 24.2812C46.25 22.3655 47.8031 20.8125 49.7188 20.8125C51.6344 20.8125 53.1875 22.3655 53.1875 24.2812Z" fill="white"/>
<path fill-rule="evenodd" clip-rule="evenodd" d="M37 48.5625C43.3857 48.5625 48.5625 43.3857 48.5625 37C48.5625 30.6143 43.3857 25.4375 37 25.4375C30.6143 25.4375 25.4375 30.6143 25.4375 37C25.4375 43.3857 30.6143 48.5625 37 48.5625ZM37 43.9375C40.8316 43.9375 43.9375 40.8316 43.9375 37C43.9375 33.1684 40.8316 30.0625 37 30.0625C33.1684 30.0625 30.0625 33.1684 30.0625 37C30.0625 40.8316 33.1684 43.9375 37 43.9375Z" fill="white"/>
<path fill-rule="evenodd" clip-rule="evenodd" d="M13.875 36.075C13.875 28.3043 13.875 24.4188 15.3873 21.4509C16.7175 18.8401 18.8401 16.7175 21.4509 15.3873C24.4188 13.875 28.3043 13.875 36.075 13.875H37.925C45.6957 13.875 49.5812 13.875 52.549 15.3873C55.1598 16.7175 57.2825 18.8401 58.6126 21.4509C60.125 24.4188 60.125 28.3043 60.125 36.075V37.925C60.125 45.6957 60.125 49.5812 58.6126 52.549C57.2825 55.1598 55.1598 57.2825 52.549 58.6126C49.5812 60.125 45.6957 60.125 37.925 60.125H36.075C28.3043 60.125 24.4188 60.125 21.4509 58.6126C18.8401 57.2825 16.7175 55.1598 15.3873 52.549C13.875 49.5812 13.875 45.6957 13.875 37.925V36.075ZM36.075 18.5H37.925C41.8868 18.5 44.5797 18.5036 46.6614 18.6737C48.6892 18.8393 49.7262 19.1396 50.4495 19.5082C52.1899 20.395 53.6049 21.8101 54.4917 23.5505C54.8604 24.2739 55.1608 25.3108 55.3263 27.3386C55.4963 29.4203 55.5 32.1132 55.5 36.075V37.925C55.5 41.8868 55.4963 44.5797 55.3263 46.6614C55.1608 48.6892 54.8604 49.7262 54.4917 50.4495C53.6049 52.1899 52.1899 53.6049 50.4495 54.4917C49.7262 54.8604 48.6892 55.1608 46.6614 55.3263C44.5797 55.4963 41.8868 55.5 37.925 55.5H36.075C32.1132 55.5 29.4203 55.4963 27.3386 55.3263C25.3108 55.1608 24.2739 54.8604 23.5505 54.4917C21.8101 53.6049 20.395 52.1899 19.5082 50.4495C19.1396 49.7262 18.8393 48.6892 18.6737 46.6614C18.5036 44.5797 18.5 41.8868 18.5 37.925V36.075C18.5 32.1132 18.5036 29.4203 18.6737 27.3386C18.8393 25.3108 19.1396 24.2739 19.5082 23.5505C20.395 21.8101 21.8101 20.395 23.5505 19.5082C24.2739 19.1396 25.3108 18.8393 27.3386 18.6737C29.4203 18.5036 32.1132 18.5 36.075 18.5Z" fill="white"/>
<defs>
<radialGradient id="paint0_radial_81_337" cx="0" cy="0" r="1" gradientUnits="userSpaceOnUse" gradientTransform="translate(27.75 53.1875) rotate(-55.3758) scale(59.0141)">
<stop stop-color="#B13589"/>
<stop offset="0.79309" stop-color="#C62F94"/>
<stop offset="1" stop-color="#8A3AC8"/>
</radialGradient>
<radialGradient id="paint1_radial_81_337" cx="0" cy="0" r="1" gradientUnits="userSpaceOnUse" gradientTransform="translate(25.4375 71.6875) rotate(-65.1363) scale(52.2491)">
<stop stop-color="#E0E8B7"/>
<stop offset="0.444662" stop-color="#FB8A2E"/>
<stop offset="0.71474" stop-color="#E2425C"/>
<stop offset="1" stop-color="#E2425C" stop-opacity="0"/>
</radialGradient>
<radialGradient id="paint2_radial_81_337" cx="0" cy="0" r="1" gradientUnits="userSpaceOnUse" gradientTransform="translate(1.15625 6.9375) rotate(-8.1301) scale(89.9352 19.2362)">
<stop offset="0.156701" stop-color="#406ADC"/>
<stop offset="0.467799" stop-color="#6A45BE"/>
<stop offset="1" stop-color="#6A45BE" stop-opacity="0"/>
</radialGradient>
</defs>
</svg>
