<svg width="75" height="75" viewBox="0 0 75 75" fill="none" xmlns="http://www.w3.org/2000/svg">
<path d="M37.5 70.3125C55.6218 70.3125 70.3125 55.6218 70.3125 37.5C70.3125 19.3782 55.6218 4.6875 37.5 4.6875C19.3782 4.6875 4.6875 19.3782 4.6875 37.5C4.6875 55.6218 19.3782 70.3125 37.5 70.3125Z" fill="url(#paint0_linear_76_284)"/>
<path d="M53.8748 23.9269C54.1669 22.039 52.372 20.5489 50.6934 21.2859L17.2613 35.9644C16.0576 36.4929 16.1456 38.3163 17.3941 38.7138L24.2885 40.9095C25.6045 41.3285 27.0293 41.1117 28.1784 40.3179L43.7226 29.5788C44.1914 29.2549 44.7023 29.9215 44.3018 30.3342L33.1127 41.8702C32.0273 42.9893 32.2427 44.8856 33.5484 45.7043L46.0758 53.5601C47.4809 54.4411 49.2883 53.5561 49.5511 51.858L53.8748 23.9269Z" fill="white"/>
<defs>
<linearGradient id="paint0_linear_76_284" x1="37.5" y1="4.6875" x2="37.5" y2="70.3125" gradientUnits="userSpaceOnUse">
<stop stop-color="#37BBFE"/>
<stop offset="1" stop-color="#007DBB"/>
</linearGradient>
</defs>
</svg>
