<svg width="72" height="66" viewBox="0 0 72 66" fill="none" xmlns="http://www.w3.org/2000/svg">
<path d="M56.375 0H15.375C6.88362 0 0 6.24723 0 13.9536V51.1631C0 58.8695 6.88362 65.1167 15.375 65.1167H56.375C64.8664 65.1167 71.75 58.8695 71.75 51.1631V13.9536C71.75 6.24723 64.8664 0 56.375 0Z" fill="#2789F6"/>
<path d="M53.616 37.9863C53.064 37.3065 52.9402 36.6184 53.2421 35.9212C53.9947 34.0612 64.9578 22.2467 60.3907 22.2467C57.2524 22.2846 53.4784 22.2467 50.4695 22.2467C49.9111 22.3702 49.5495 22.6362 49.3235 23.1774C47.5641 26.8593 45.4111 31.3523 42.2559 34.2398C41.8408 34.5437 41.5819 34.5307 41.1089 34.4184C38.8957 32.3035 41.2557 25.0583 39.9097 22.1955C39.6444 21.635 39.0638 21.3818 38.4695 21.2395C35.4648 20.5895 28.6019 20.9762 27.4821 22.2846C27.162 22.6585 27.1174 22.8627 27.3483 22.8962C28.4153 23.049 29.1705 23.4144 29.6151 23.9923C30.4538 25.6683 31.0719 34.5963 28.6019 34.5963C26.1319 34.5963 22.149 25.8344 21.0548 23.4055C20.7637 22.6741 20.0225 22.2548 19.2415 22.1311L11.9343 22.1818C10.6499 22.1818 9.93205 22.7567 10.3873 23.9153C14.1932 32.4891 22.5218 49.108 35.2956 48.692C36.5753 48.692 38.7768 49.1378 39.7762 48.131C41.1497 46.4773 39.4746 43.5322 41.8295 42.4091C42.4235 42.1224 43.0392 42.3626 43.5494 42.7154C46.1691 44.5257 47.5598 47.7029 50.7903 48.6675C51.3581 48.8373 51.856 48.8799 52.2832 48.795L59.1102 48.6931C60.3776 48.6931 61.6261 48.1813 61.3639 46.8061C60.3687 43.857 56.4027 40.8256 53.616 37.9863Z" fill="white"/>
</svg>
