<svg width="85" height="56" viewBox="0 0 85 56" fill="none" xmlns="http://www.w3.org/2000/svg">
<path d="M0.742262 10.858C1.13244 5.40634 5.96199 1.1339 11.9743 0.863574C20.6805 0.472107 33.1242 0 42.5 0C51.8758 0 64.3195 0.472107 73.0256 0.863574C79.0382 1.1339 83.8677 5.40634 84.2578 10.858C84.6315 16.081 85 22.508 85 27.5506C85 32.5932 84.6315 39.0202 84.2578 44.2433C83.8677 49.695 79.0382 53.9672 73.0256 54.2378C64.3195 54.629 51.8758 55.1012 42.5 55.1012C33.1242 55.1012 20.6805 54.629 11.9743 54.2378C5.96199 53.9672 1.13244 49.695 0.742262 44.2433C0.368414 39.0202 0 32.5932 0 27.5506C0 22.508 0.368414 16.081 0.742262 10.858Z" fill="#FC0D1B"/>
</svg>
